<svg xmlns="http://www.w3.org/2000/svg" viewBox="0 0 100 120" fill="white">
  <path d="M75.3 63.1c-.1-10.2 8.3-15.1 8.7-15.4-4.7-6.9-12.1-7.9-14.8-8-6.3-.6-12.3 3.7-15.5 3.7-3.2 0-8.1-3.6-13.3-3.5-6.8.1-13.1 4-16.6 10-7.1 12.3-1.8 30.6 5.1 40.6 3.4 4.9 7.4 10.4 12.7 10.2 5.1-.2 7-3.3 13.2-3.3 6.1 0 7.8 3.3 13.2 3.2 5.5-.1 9-5 12.4-9.9 3.9-5.6 5.5-11.1 5.6-11.4-.1-.1-10.7-4.2-10.7-16.2zM64.4 32.7c2.8-3.4 4.7-8.2 4.2-12.9-4.1.2-9 2.7-11.9 6.1-2.6 3-4.9 7.9-4.3 12.5 4.6.4 9.2-2.4 12-5.7z"/>
</svg>
