<svg version="1.1" id="Layer_1" xmlns="http://www.w3.org/2000/svg" xmlns:xlink="http://www.w3.org/1999/xlink" x="0px" y="0px"
	 width="100%" viewBox="0 0 260 260" enable-background="new 0 0 260 260" xml:space="preserve">
<path fill="#000000" opacity="1.000000" stroke="none" 
	d="
M1.000000,110.000000 
	C1.000000,73.706749 1.000000,37.413490 1.000000,1.060119 
	C87.666656,1.060119 174.333328,1.060119 261.000000,1.060119 
	C261.000000,10.082497 261.000000,19.072590 260.610535,28.850784 
	C257.286072,29.424757 254.353058,29.067360 251.415710,29.027248 
	C245.832779,28.951015 242.076782,32.037933 241.003510,37.239140 
	C240.146545,41.392075 243.651199,50.552235 248.008484,50.908646 
	C252.312683,51.260712 256.667419,50.994808 261.000000,51.000000 
	C261.000000,68.687561 261.000000,86.375122 260.635834,104.628265 
	C254.711533,107.130806 249.174652,109.137962 243.586304,110.989769 
	C232.638412,114.617577 221.671051,118.187454 210.693512,121.724693 
	C204.465485,123.731529 196.973999,124.118294 192.263580,127.952354 
	C186.354858,132.761765 182.713135,140.356339 178.093018,146.748886 
	C178.435791,147.129349 178.778580,147.509827 179.121368,147.890305 
	C180.356735,147.815338 181.713135,148.045502 182.806305,147.611938 
	C187.250092,145.849533 191.641525,143.946533 196.001007,141.981644 
	C214.448944,133.666870 232.854813,125.258133 251.338272,117.023384 
	C254.400101,115.659279 257.771606,114.990257 261.000000,114.000000 
	C261.000000,118.024544 261.000000,122.049088 260.594452,126.536629 
	C259.358826,127.023994 258.461823,126.849350 257.708801,127.102722 
	C247.408966,130.568512 237.149811,134.155838 226.839249,137.588867 
	C212.221985,142.455856 197.561584,147.193192 182.940887,152.049957 
	C179.942245,153.046051 176.151001,153.534546 174.275604,155.638855 
	C170.484680,159.892487 167.690933,165.052353 164.634811,169.931717 
	C163.814011,171.242188 163.529312,172.888443 162.590775,175.526749 
	C173.241013,170.979752 182.617111,167.081314 191.907532,162.988388 
	C210.793381,154.668121 229.618118,146.209152 248.503265,137.887283 
	C252.592651,136.085266 256.830505,134.620239 261.000000,133.000000 
	C261.000000,137.689255 261.000000,142.378510 260.583862,147.534515 
	C259.170074,148.023895 258.092224,147.805084 257.186859,148.105682 
	C245.344086,152.037689 233.500656,155.970734 221.709259,160.053391 
	C212.470337,163.252274 203.374222,166.875473 194.085388,169.915085 
	C184.070190,173.192413 173.881973,175.938019 163.824036,179.090393 
	C161.880219,179.699631 159.545105,180.681305 158.497391,182.236771 
	C154.754272,187.793854 151.487640,193.671875 147.372559,200.544342 
	C152.557037,198.630966 156.878754,197.282669 160.995270,195.468689 
	C171.674149,190.763000 182.205353,185.720596 192.904099,181.062027 
	C202.829239,176.740326 212.958038,172.886200 222.881287,168.560425 
	C233.425308,163.964050 243.799393,158.978561 254.329681,154.349472 
	C256.358734,153.457504 258.766785,153.427597 261.000000,153.000000 
	C261.000000,188.966476 261.000000,224.932938 261.000000,260.949707 
	C174.447617,260.949707 87.895195,260.949707 1.000000,260.949707 
	C1.000000,227.313217 1.000000,193.625259 1.320186,159.153320 
	C6.957087,160.560333 12.328796,162.627686 17.581053,164.963638 
	C41.022934,175.389465 64.413849,185.930038 87.869125,196.325500 
	C91.353706,197.869873 95.083534,198.860886 98.699905,200.107895 
	C98.945229,199.730255 99.190559,199.352600 99.435883,198.974960 
	C97.285698,195.586746 94.938187,192.305435 93.031387,188.785385 
	C90.139336,183.446487 86.231239,179.601974 80.206291,177.959351 
	C74.801971,176.485977 69.466232,174.741760 64.150703,172.965988 
	C52.636951,169.119522 41.209106,165.008041 29.644054,161.325500 
	C20.172684,158.309631 10.553603,155.757629 1.000001,153.000000 
	C1.000000,148.975449 1.000000,144.950912 1.315962,140.153320 
	C11.428835,143.590469 21.239222,147.769638 31.019131,152.018921 
	C42.428932,156.976379 53.816315,161.985535 65.205154,166.991074 
	C71.299797,169.669754 77.377045,172.388031 83.867912,175.268509 
	C83.867912,173.906937 84.260841,172.669739 83.808281,172.045853 
	C78.089203,164.161514 74.987350,154.383911 63.186886,151.690659 
	C49.846783,148.645996 37.050743,143.246460 23.974777,139.004547 
	C16.360405,136.534409 8.661096,134.326111 1.000000,132.000000 
	C1.000000,128.307098 1.000000,124.614182 1.390930,120.463074 
	C6.648628,121.999313 11.528261,123.963051 16.379412,125.994781 
	C25.664516,129.883530 34.995281,133.672241 44.187279,137.771164 
	C50.305305,140.499329 56.160378,143.813629 62.250713,146.609467 
	C64.228653,147.517471 66.578857,147.614563 69.977211,148.344147 
	C65.329941,141.119019 61.656479,135.052612 57.550922,129.294296 
	C56.616108,127.983154 54.216167,127.652641 52.434502,127.031677 
	C51.240410,126.615501 49.904453,126.610138 48.705116,126.204628 
	C32.795849,120.825455 16.899542,115.407944 1.000000,110.000000 
M167.007889,160.487946 
	C190.881042,118.953003 214.754211,77.418076 238.942429,35.334984 
	C162.256592,35.334984 86.712120,35.334984 10.139787,35.334984 
	C11.383205,38.613827 12.043988,41.462536 13.454220,43.872734 
	C18.150997,51.899879 23.218523,59.709515 27.949608,67.717339 
	C32.333115,75.136856 36.434135,82.722672 40.720154,90.200539 
	C45.111553,97.862251 49.645687,105.442711 53.989712,113.130859 
	C58.302303,120.763374 62.361050,128.539886 66.707848,136.152328 
	C70.536247,142.856934 74.614502,149.418732 78.571747,156.049957 
	C82.499313,162.631439 86.415039,169.219971 90.333252,175.807022 
	C94.846169,183.393829 99.496887,190.903137 103.828773,198.591995 
	C108.383789,206.676895 112.538422,214.986816 117.058556,223.092148 
	C119.032753,226.632202 121.481178,229.907791 124.295509,234.187363 
	C138.723099,209.162247 152.599548,185.093094 167.007889,160.487946 
M131.041672,230.771576 
	C131.929611,231.514954 132.824371,232.914734 133.704453,232.905548 
	C154.728302,232.686371 175.750656,232.321198 196.772476,231.938217 
	C197.216904,231.930115 197.651810,231.399277 198.668930,230.734909 
	C197.368637,230.349594 196.797623,230.040054 196.221359,230.029922 
	C175.704086,229.668671 155.186523,229.320099 134.667999,229.043076 
	C133.624939,229.028992 132.573105,229.664703 131.041672,230.771576 
M91.747406,228.999359 
	C77.846390,229.516830 63.945377,230.034302 50.044361,230.551773 
	C50.057713,231.092224 50.071068,231.632660 50.084419,232.173096 
	C72.314331,232.173096 94.544243,232.173096 116.774147,232.173096 
	C116.044884,230.629974 114.617012,229.165085 113.136810,229.110138 
	C106.334831,228.857681 99.518234,228.999054 91.747406,228.999359 
z"/>
<path fill="#FEFEFE" opacity="1.000000" stroke="none" 
	d="
M261.000000,152.583344 
	C258.766785,153.427597 256.358734,153.457504 254.329681,154.349472 
	C243.799393,158.978561 233.425308,163.964050 222.881287,168.560425 
	C212.958038,172.886200 202.829239,176.740326 192.904099,181.062027 
	C182.205353,185.720596 171.674149,190.763000 160.995270,195.468689 
	C156.878754,197.282669 152.557037,198.630966 147.372559,200.544342 
	C151.487640,193.671875 154.754272,187.793854 158.497391,182.236771 
	C159.545105,180.681305 161.880219,179.699631 163.824036,179.090393 
	C173.881973,175.938019 184.070190,173.192413 194.085388,169.915085 
	C203.374222,166.875473 212.470337,163.252274 221.709259,160.053391 
	C233.500656,155.970734 245.344086,152.037689 257.186859,148.105682 
	C258.092224,147.805084 259.170074,148.023895 260.583862,148.000641 
	C261.000000,149.388885 261.000000,150.777786 261.000000,152.583344 
z"/>
<path fill="#FEFEFE" opacity="1.000000" stroke="none" 
	d="
M261.000000,132.571533 
	C256.830505,134.620239 252.592651,136.085266 248.503265,137.887283 
	C229.618118,146.209152 210.793381,154.668121 191.907532,162.988388 
	C182.617111,167.081314 173.241013,170.979752 162.590775,175.526749 
	C163.529312,172.888443 163.814011,171.242188 164.634811,169.931717 
	C167.690933,165.052353 170.484680,159.892487 174.275604,155.638855 
	C176.151001,153.534546 179.942245,153.046051 182.940887,152.049957 
	C197.561584,147.193192 212.221985,142.455856 226.839249,137.588867 
	C237.149811,134.155838 247.408966,130.568512 257.708801,127.102722 
	C258.461823,126.849350 259.358826,127.023994 260.594452,126.999817 
	C261.000000,128.714355 261.000000,130.428711 261.000000,132.571533 
z"/>
<path fill="#FEFEFE" opacity="1.000000" stroke="none" 
	d="
M1.000001,153.428467 
	C10.553603,155.757629 20.172684,158.309631 29.644054,161.325500 
	C41.209106,165.008041 52.636951,169.119522 64.150703,172.965988 
	C69.466232,174.741760 74.801971,176.485977 80.206291,177.959351 
	C86.231239,179.601974 90.139336,183.446487 93.031387,188.785385 
	C94.938187,192.305435 97.285698,195.586746 99.435883,198.974960 
	C99.190559,199.352600 98.945229,199.730255 98.699905,200.107895 
	C95.083534,198.860886 91.353706,197.869873 87.869125,196.325500 
	C64.413849,185.930038 41.022934,175.389465 17.581053,164.963638 
	C12.328796,162.627686 6.957087,160.560333 1.320186,158.684662 
	C1.000000,157.285645 1.000000,155.571289 1.000001,153.428467 
z"/>
<path fill="#FEFEFE" opacity="1.000000" stroke="none" 
	d="
M261.000000,113.550026 
	C257.771606,114.990257 254.400101,115.659279 251.338272,117.023384 
	C232.854813,125.258133 214.448944,133.666870 196.001007,141.981644 
	C191.641525,143.946533 187.250092,145.849533 182.806305,147.611938 
	C181.713135,148.045502 180.356735,147.815338 179.121368,147.890305 
	C178.778580,147.509827 178.435791,147.129349 178.093018,146.748886 
	C182.713135,140.356339 186.354858,132.761765 192.263580,127.952354 
	C196.973999,124.118294 204.465485,123.731529 210.693512,121.724693 
	C221.671051,118.187454 232.638412,114.617577 243.586304,110.989769 
	C249.174652,109.137962 254.711533,107.130806 260.635834,105.096924 
	C261.000000,107.700012 261.000000,110.400032 261.000000,113.550026 
z"/>
<path fill="#FEFEFE" opacity="1.000000" stroke="none" 
	d="
M1.000000,132.444168 
	C8.661096,134.326111 16.360405,136.534409 23.974777,139.004547 
	C37.050743,143.246460 49.846783,148.645996 63.186886,151.690659 
	C74.987350,154.383911 78.089203,164.161514 83.808281,172.045853 
	C84.260841,172.669739 83.867912,173.906937 83.867912,175.268509 
	C77.377045,172.388031 71.299797,169.669754 65.205154,166.991074 
	C53.816315,161.985535 42.428932,156.976379 31.019131,152.018921 
	C21.239222,147.769638 11.428835,143.590469 1.315962,139.690155 
	C1.000000,137.629440 1.000000,135.258896 1.000000,132.444168 
z"/>
<path fill="#FEFEFE" opacity="1.000000" stroke="none" 
	d="
M1.000000,110.454109 
	C16.899542,115.407944 32.795849,120.825455 48.705116,126.204628 
	C49.904453,126.610138 51.240410,126.615501 52.434502,127.031677 
	C54.216167,127.652641 56.616108,127.983154 57.550922,129.294296 
	C61.656479,135.052612 65.329941,141.119019 69.977211,148.344147 
	C66.578857,147.614563 64.228653,147.517471 62.250713,146.609467 
	C56.160378,143.813629 50.305305,140.499329 44.187279,137.771164 
	C34.995281,133.672241 25.664516,129.883530 16.379412,125.994781 
	C11.528261,123.963051 6.648628,121.999313 1.390930,120.002434 
	C1.000000,116.969406 1.000000,113.938812 1.000000,110.454109 
z"/>
<path fill="#FDFDFD" opacity="1.000000" stroke="none" 
	d="
M261.000000,50.555836 
	C256.667419,50.994808 252.312683,51.260712 248.008484,50.908646 
	C243.651199,50.552235 240.146545,41.392075 241.003510,37.239140 
	C242.076782,32.037933 245.832779,28.951015 251.415710,29.027248 
	C254.353058,29.067360 257.286072,29.424757 260.610535,29.319443 
	C261.000000,32.030594 261.000000,35.061188 260.719757,38.260929 
	C257.353729,40.354759 257.299408,41.907642 261.000000,43.000000 
	C261.000000,45.370556 261.000000,47.741116 261.000000,50.555836 
M245.987930,44.436184 
	C248.719849,42.442978 248.873367,38.514740 246.289536,35.275898 
	C243.542892,37.926025 243.310287,40.792255 245.987930,44.436184 
M255.239685,31.996523 
	C253.228317,32.195869 251.216949,32.395218 249.205582,32.594566 
	C249.250458,32.975567 249.295349,33.356567 249.340225,33.737568 
	C252.655121,33.995090 255.970001,34.252613 260.290955,34.588291 
	C258.382416,33.423294 257.238373,32.724941 255.239685,31.996523 
z"/>
<path fill="#000000" opacity="1.000000" stroke="none" 
	d="
M261.000000,42.600006 
	C257.299408,41.907642 257.353729,40.354759 260.719757,38.715038 
	C261.000000,40.066669 261.000000,41.133339 261.000000,42.600006 
z"/>
<path fill="#FEFEFE" opacity="1.000000" stroke="none" 
	d="
M166.741943,160.755951 
	C152.599548,185.093094 138.723099,209.162247 124.295509,234.187363 
	C121.481178,229.907791 119.032753,226.632202 117.058556,223.092148 
	C112.538422,214.986816 108.383789,206.676895 103.828773,198.591995 
	C99.496887,190.903137 94.846169,183.393829 90.333252,175.807022 
	C86.415039,169.219971 82.499313,162.631439 78.571747,156.049957 
	C74.614502,149.418732 70.536247,142.856934 66.707848,136.152328 
	C62.361050,128.539886 58.302303,120.763374 53.989712,113.130859 
	C49.645687,105.442711 45.111553,97.862251 40.720154,90.200539 
	C36.434135,82.722672 32.333115,75.136856 27.949608,67.717339 
	C23.218523,59.709515 18.150997,51.899879 13.454220,43.872734 
	C12.043988,41.462536 11.383205,38.613827 10.139787,35.334984 
	C86.712120,35.334984 162.256592,35.334984 238.942429,35.334984 
	C214.754211,77.418076 190.881042,118.953003 166.741943,160.755951 
M33.348705,54.879318 
	C34.909290,57.357483 36.564220,59.781910 38.012325,62.324150 
	C41.960320,69.255089 45.685562,76.316017 49.750053,83.176743 
	C54.987591,92.017540 60.627151,100.621506 65.808167,109.494118 
	C73.407982,122.508957 80.727135,135.687363 88.217377,148.766571 
	C95.853844,162.101089 103.549515,175.401703 111.225288,188.713699 
	C115.516609,196.156052 119.820160,203.591354 124.042900,210.899521 
	C155.596634,156.157120 186.882507,101.879417 218.310181,47.355721 
	C154.855774,47.355721 92.499893,47.355721 29.910044,47.355721 
	C31.063774,49.887581 32.042767,52.035976 33.348705,54.879318 
z"/>
<path fill="#FDFDFD" opacity="1.000000" stroke="none" 
	d="
M131.283508,230.384735 
	C132.573105,229.664703 133.624939,229.028992 134.667999,229.043076 
	C155.186523,229.320099 175.704086,229.668671 196.221359,230.029922 
	C196.797623,230.040054 197.368637,230.349594 198.668930,230.734909 
	C197.651810,231.399277 197.216904,231.930115 196.772476,231.938217 
	C175.750656,232.321198 154.728302,232.686371 133.704453,232.905548 
	C132.824371,232.914734 131.929611,231.514954 131.283508,230.384735 
z"/>
<path fill="#FEFEFE" opacity="1.000000" stroke="none" 
	d="
M92.227142,228.999237 
	C99.518234,228.999054 106.334831,228.857681 113.136810,229.110138 
	C114.617012,229.165085 116.044884,230.629974 116.774147,232.173096 
	C94.544243,232.173096 72.314331,232.173096 50.084419,232.173096 
	C50.071068,231.632660 50.057713,231.092224 50.044361,230.551773 
	C63.945377,230.034302 77.846390,229.516830 92.227142,228.999237 
z"/>
<path fill="#000000" opacity="1.000000" stroke="none" 
	d="
M245.692474,44.175365 
	C243.310287,40.792255 243.542892,37.926025 246.289536,35.275898 
	C248.873367,38.514740 248.719849,42.442978 245.692474,44.175365 
z"/>
<path fill="#000000" opacity="1.000000" stroke="none" 
	d="
M255.667007,32.011559 
	C257.238373,32.724941 258.382416,33.423294 260.290955,34.588291 
	C255.970001,34.252613 252.655121,33.995090 249.340225,33.737568 
	C249.295349,33.356567 249.250458,32.975567 249.205582,32.594566 
	C251.216949,32.395218 253.228317,32.195869 255.667007,32.011559 
z"/>
<path fill="#000000" opacity="1.000000" stroke="none" 
	d="
M33.185234,54.531845 
	C32.042767,52.035976 31.063774,49.887581 29.910044,47.355721 
	C92.499893,47.355721 154.855774,47.355721 218.310181,47.355721 
	C186.882507,101.879417 155.596634,156.157120 124.042900,210.899521 
	C119.820160,203.591354 115.516609,196.156052 111.225288,188.713699 
	C103.549515,175.401703 95.853844,162.101089 88.217377,148.766571 
	C80.727135,135.687363 73.407982,122.508957 65.808167,109.494118 
	C60.627151,100.621506 54.987591,92.017540 49.750053,83.176743 
	C45.685562,76.316017 41.960320,69.255089 38.012325,62.324150 
	C36.564220,59.781910 34.909290,57.357483 33.185234,54.531845 
M134.500061,55.159393 
	C105.079918,55.159393 75.659775,55.159393 45.142662,55.159393 
	C71.530495,100.965714 97.532608,146.102463 124.214828,192.419800 
	C150.762238,146.420898 176.718369,101.446487 203.432098,55.159393 
	C179.626648,55.159393 157.563370,55.159393 134.500061,55.159393 
z"/>
<path fill="#FCFCFC" opacity="1.000000" stroke="none" 
	d="
M135.000076,55.159393 
	C157.563370,55.159393 179.626648,55.159393 203.432098,55.159393 
	C176.718369,101.446487 150.762238,146.420898 124.214828,192.419800 
	C97.532608,146.102463 71.530495,100.965714 45.142662,55.159393 
	C75.659775,55.159393 105.079918,55.159393 135.000076,55.159393 
M170.427063,94.052216 
	C176.276413,84.161545 182.125778,74.270866 187.938263,64.442551 
	C145.302902,64.442551 103.149841,64.442551 60.796089,64.442551 
	C81.987640,101.289780 102.939171,137.719681 124.320900,174.897583 
	C131.423401,162.239853 137.899048,150.639999 144.436172,139.074875 
	C147.567566,133.534958 150.828751,128.068527 154.007462,122.555145 
	C159.356216,113.277885 164.686081,103.989723 170.427063,94.052216 
z"/>
<path fill="#000000" opacity="1.000000" stroke="none" 
	d="
M170.225494,94.379181 
	C164.686081,103.989723 159.356216,113.277885 154.007462,122.555145 
	C150.828751,128.068527 147.567566,133.534958 144.436172,139.074875 
	C137.899048,150.639999 131.423401,162.239853 124.320900,174.897583 
	C102.939171,137.719681 81.987640,101.289780 60.796089,64.442551 
	C103.149841,64.442551 145.302902,64.442551 187.938263,64.442551 
	C182.125778,74.270866 176.276413,84.161545 170.225494,94.379181 
M142.017471,72.020927 
	C129.036636,72.072517 116.055786,72.124100 102.375206,72.202866 
	C99.792824,76.227554 97.210434,80.252243 94.012245,85.236671 
	C99.407959,84.744186 103.484039,84.018738 107.550606,84.068619 
	C118.814087,84.206741 130.074966,84.629211 141.334015,85.020966 
	C145.768570,85.175278 148.696716,89.296181 146.798035,93.222054 
	C144.063202,98.876862 134.206223,106.757950 126.185402,105.567093 
	C127.580666,101.118805 128.801971,96.613739 130.422455,92.257149 
	C131.661560,88.925919 130.362442,87.980156 127.330093,87.997841 
	C124.168297,88.016281 120.956436,87.674477 117.866585,88.146103 
	C116.438522,88.364090 114.557358,89.891914 114.066216,91.253242 
	C111.491768,98.389099 109.231445,105.641647 106.989838,112.893173 
	C105.092361,119.031418 103.369118,125.223518 101.452942,131.788635 
	C107.703903,131.788635 113.144638,131.788635 118.879982,131.788635 
	C119.263649,129.491943 119.457336,127.227585 120.042480,125.069351 
	C121.122742,121.084984 122.024727,116.963608 127.181114,115.989944 
	C131.292496,115.213608 135.461365,114.386162 139.364059,112.934433 
	C147.412399,109.940605 155.410706,106.657852 161.387329,100.094543 
	C168.848572,91.900879 168.339676,76.836830 156.994308,73.684364 
	C152.513428,72.439293 147.631912,72.636086 142.017471,72.020927 
z"/>
<path fill="#0198FE" opacity="1.000000" stroke="none" 
	d="
M142.932816,72.176346 
	C147.631912,72.636086 152.513428,72.439293 156.994308,73.684364 
	C168.339676,76.836830 168.848572,91.900879 161.387329,100.094543 
	C155.410706,106.657852 147.412399,109.940605 139.364059,112.934433 
	C135.461365,114.386162 131.292496,115.213608 127.181114,115.989944 
	C122.024727,116.963608 121.122742,121.084984 120.042480,125.069351 
	C119.457336,127.227585 119.263649,129.491943 118.879982,131.788635 
	C113.144638,131.788635 107.703903,131.788635 101.452942,131.788635 
	C103.369118,125.223518 105.092361,119.031418 106.989838,112.893173 
	C109.231445,105.641647 111.491768,98.389099 114.066216,91.253242 
	C114.557358,89.891914 116.438522,88.364090 117.866585,88.146103 
	C120.956436,87.674477 124.168297,88.016281 127.330093,87.997841 
	C130.362442,87.980156 131.661560,88.925919 130.422455,92.257149 
	C128.801971,96.613739 127.580666,101.118805 126.185402,105.567093 
	C134.206223,106.757950 144.063202,98.876862 146.798035,93.222054 
	C148.696716,89.296181 145.768570,85.175278 141.334015,85.020966 
	C130.074966,84.629211 118.814087,84.206741 107.550606,84.068619 
	C103.484039,84.018738 99.407959,84.744186 94.012245,85.236671 
	C97.210434,80.252243 99.792824,76.227554 103.035019,72.454704 
	C115.041039,72.804466 126.387169,72.938919 137.733536,72.961510 
	C139.466110,72.964958 141.199692,72.450996 142.932816,72.176346 
z"/>
<path fill="#00BFFF" opacity="1.000000" stroke="none" 
	d="
M142.475143,72.098633 
	C141.199692,72.450996 139.466110,72.964958 137.733536,72.961510 
	C126.387169,72.938919 115.041039,72.804466 103.384888,72.441116 
	C116.055786,72.124100 129.036636,72.072517 142.475143,72.098633 
z"/>
</svg>